<svg width="22" height="23" viewBox="0 0 22 23" fill="none" xmlns="http://www.w3.org/2000/svg">
<g clip-path="url(#clip0_361_926)">
<path d="M15.6824 15.9158C16.2407 15.9158 16.6932 15.4632 16.6932 14.905C16.6932 14.3467 16.2407 13.8942 15.6824 13.8942C15.1242 13.8942 14.6716 14.3467 14.6716 14.905C14.6716 15.4632 15.1242 15.9158 15.6824 15.9158Z" fill="#323232"/>
<path fill-rule="evenodd" clip-rule="evenodd" d="M15.6825 16.71C15.0237 16.71 13.706 17.0349 13.6609 17.6847C14.1121 18.3254 14.8522 18.7406 15.6825 18.7406C16.5128 18.7406 17.2528 18.3254 17.7041 17.6847C17.659 17.0349 16.3413 16.71 15.6825 16.71Z" fill="#323232"/>
<path fill-rule="evenodd" clip-rule="evenodd" d="M16.5851 10.925V6.57495L9.81636 3.62378L3.04761 6.57495V11.0062C3.04761 15.1036 5.93561 18.9392 9.81636 19.8688C10.3127 19.7515 10.7911 19.58 11.2604 19.3724C12.2351 20.7623 13.8505 21.6738 15.6826 21.6738C18.6699 21.6738 21.0976 19.2461 21.0976 16.2588C21.0976 13.5784 19.1482 11.3582 16.5851 10.925ZM10.2676 16.2588C10.2676 16.7642 10.3398 17.2606 10.4752 17.7208C10.2586 17.8201 10.042 17.9194 9.81636 17.9916C6.95543 17.0891 4.85261 14.165 4.85261 11.0062V7.75723L9.81636 5.59123L14.7801 7.75723V10.925C12.217 11.3582 10.2676 13.5784 10.2676 16.2588ZM15.6826 19.8688C13.6881 19.8688 12.0726 18.2533 12.0726 16.2588C12.0726 14.2643 13.6881 12.6488 15.6826 12.6488C17.6771 12.6488 19.2926 14.2643 19.2926 16.2588C19.2926 18.2533 17.6771 19.8688 15.6826 19.8688Z" fill="#323232"/>
</g>
<defs>
<clipPath id="clip0_361_926">
<rect width="21.66" height="21.66" fill="white" transform="translate(0.340088 0.91626)"/>
</clipPath>
</defs>
</svg>
