<svg width="20" height="21" viewBox="0 0 20 21" fill="none" xmlns="http://www.w3.org/2000/svg">
<path d="M20.12 10.1425C20.12 15.6654 15.6429 20.1425 10.12 20.1425C4.59713 20.1425 0.119995 15.6654 0.119995 10.1425C0.119995 4.61965 4.59713 0.142517 10.12 0.142517C15.6429 0.142517 20.12 4.61965 20.12 10.1425ZM8.9633 15.4374L16.3827 8.01808C16.6346 7.76615 16.6346 7.35764 16.3827 7.1057L15.4703 6.19332C15.2183 5.94135 14.8098 5.94135 14.5579 6.19332L8.50709 12.244L5.68213 9.41909C5.4302 9.16715 5.02169 9.16715 4.76971 9.41909L3.85733 10.3315C3.6054 10.5834 3.6054 10.9919 3.85733 11.2438L8.05088 15.4374C8.30286 15.6894 8.71132 15.6894 8.9633 15.4374Z" fill="#529F17"/>
</svg>
