<svg width="20" height="21" viewBox="0 0 20 21" fill="none" xmlns="http://www.w3.org/2000/svg">
<path d="M20.12 10.1425C20.12 15.6666 15.6425 20.1425 10.12 20.1425C4.59754 20.1425 0.119995 15.6666 0.119995 10.1425C0.119995 4.62167 4.59754 0.142517 10.12 0.142517C15.6425 0.142517 20.12 4.62167 20.12 10.1425ZM10.12 12.1586C9.0956 12.1586 8.26516 12.9891 8.26516 14.0135C8.26516 15.0379 9.0956 15.8683 10.12 15.8683C11.1444 15.8683 11.9748 15.0379 11.9748 14.0135C11.9748 12.9891 11.1444 12.1586 10.12 12.1586ZM8.35899 5.49147L8.6581 10.9753C8.67209 11.232 8.88427 11.4328 9.14124 11.4328H11.0987C11.3557 11.4328 11.5679 11.232 11.5819 10.9753L11.881 5.49147C11.8961 5.21429 11.6754 4.98123 11.3979 4.98123H8.84209C8.56451 4.98123 8.34387 5.21429 8.35899 5.49147Z" fill="#D2524B"/>
</svg>
