<svg width="25" height="25" viewBox="0 0 25 25" fill="none" xmlns="http://www.w3.org/2000/svg">
<g clip-path="url(#clip0_366_663)">
<path d="M12.5 2.03149C6.74998 2.03149 2.08331 6.69816 2.08331 12.4482C2.08331 18.1982 6.74998 22.8648 12.5 22.8648H17.7083V20.7815H12.5C7.97915 20.7815 4.16665 16.969 4.16665 12.4482C4.16665 7.92733 7.97915 4.11483 12.5 4.11483C17.0208 4.11483 20.8333 7.92733 20.8333 12.4482V13.9377C20.8333 14.7607 20.0937 15.5732 19.2708 15.5732C18.4479 15.5732 17.7083 14.7607 17.7083 13.9377V12.4482C17.7083 9.57316 15.375 7.23983 12.5 7.23983C9.62498 7.23983 7.29165 9.57316 7.29165 12.4482C7.29165 15.3232 9.62498 17.6565 12.5 17.6565C13.9375 17.6565 15.25 17.0732 16.1875 16.1252C16.8646 17.0523 18.0312 17.6565 19.2708 17.6565C21.3229 17.6565 22.9166 15.9898 22.9166 13.9377V12.4482C22.9166 6.69816 18.25 2.03149 12.5 2.03149ZM12.5 15.5732C10.7708 15.5732 9.37498 14.1773 9.37498 12.4482C9.37498 10.719 10.7708 9.32316 12.5 9.32316C14.2291 9.32316 15.625 10.719 15.625 12.4482C15.625 14.1773 14.2291 15.5732 12.5 15.5732Z" fill="#663399"/>
</g>
<defs>
<clipPath id="clip0_366_663">
<rect width="25" height="25" fill="white" transform="translate(0 0.000244141)"/>
</clipPath>
</defs>
</svg>
