<svg width="22" height="23" viewBox="0 0 22 23" fill="none" xmlns="http://www.w3.org/2000/svg">
<g clip-path="url(#clip0_361_932)">
<path d="M10.0781 15.3331C10.4301 15.6851 10.9986 15.6851 11.3506 15.3331L14.5906 12.0931C14.9426 11.7411 14.9426 11.1726 14.5906 10.8206L11.3506 7.58062C10.9986 7.22864 10.4301 7.22864 10.0781 7.58062C9.72611 7.93259 9.72611 8.50117 10.0781 8.85314L11.7748 10.5589H3.95011C3.45373 10.5589 3.04761 10.965 3.04761 11.4614C3.04761 11.9577 3.45373 12.3639 3.95011 12.3639H11.7748L10.0781 14.0606C9.72611 14.4125 9.73513 14.9901 10.0781 15.3331ZM17.4876 3.33887H4.85261C3.85083 3.33887 3.04761 4.15112 3.04761 5.14387V7.85137C3.04761 8.34774 3.45373 8.75387 3.95011 8.75387C4.44648 8.75387 4.85261 8.34774 4.85261 7.85137V6.04637C4.85261 5.54999 5.25873 5.14387 5.75511 5.14387H16.5851C17.0815 5.14387 17.4876 5.54999 17.4876 6.04637V16.8764C17.4876 17.3727 17.0815 17.7789 16.5851 17.7789H5.75511C5.25873 17.7789 4.85261 17.3727 4.85261 16.8764V15.0714C4.85261 14.575 4.44648 14.1689 3.95011 14.1689C3.45373 14.1689 3.04761 14.575 3.04761 15.0714V17.7789C3.04761 18.7716 3.85986 19.5839 4.85261 19.5839H17.4876C18.4804 19.5839 19.2926 18.7716 19.2926 17.7789V5.14387C19.2926 4.15112 18.4804 3.33887 17.4876 3.33887Z" fill="#D2524B"/>
</g>
<defs>
<clipPath id="clip0_361_932">
<rect width="21.66" height="21.66" fill="white" transform="translate(0.340088 0.631348)"/>
</clipPath>
</defs>
</svg>
