<svg width="17" height="18" viewBox="0 0 17 18" fill="none" xmlns="http://www.w3.org/2000/svg">
<g clip-path="url(#clip0_434_165)">
<path d="M3.08751 4.93873H1.73376V14.415C1.73376 15.1595 2.34295 15.7687 3.08751 15.7687H12.5638V14.415H3.08751V4.93873ZM13.9175 2.23123H5.79501C5.05045 2.23123 4.44126 2.84042 4.44126 3.58498V11.7075C4.44126 12.452 5.05045 13.0612 5.79501 13.0612H13.9175C14.6621 13.0612 15.2713 12.452 15.2713 11.7075V3.58498C15.2713 2.84042 14.6621 2.23123 13.9175 2.23123ZM13.9175 11.7075H5.79501V3.58498H13.9175V11.7075ZM7.14876 6.96936H12.5638V8.32311H7.14876V6.96936ZM7.14876 8.99998H9.85626V10.3537H7.14876V8.99998ZM7.14876 4.93873H12.5638V6.29248H7.14876V4.93873Z" fill="#323232"/>
</g>
<defs>
<clipPath id="clip0_434_165">
<rect width="16.245" height="16.245" fill="white" transform="translate(0.380005 0.877502)"/>
</clipPath>
</defs>
</svg>
