<svg width="20" height="21" viewBox="0 0 20 21" fill="none" xmlns="http://www.w3.org/2000/svg">
<path d="M10.12 0.142517C4.59754 0.142517 0.119995 4.62167 0.119995 10.1425C0.119995 15.6666 4.59754 20.1425 10.12 20.1425C15.6425 20.1425 20.12 15.6666 20.12 10.1425C20.12 4.62167 15.6425 0.142517 10.12 0.142517ZM10.12 4.578C11.0553 4.578 11.8135 5.33623 11.8135 6.27155C11.8135 7.20687 11.0553 7.9651 10.12 7.9651C9.18467 7.9651 8.42645 7.20687 8.42645 6.27155C8.42645 5.33623 9.18467 4.578 10.12 4.578ZM12.3781 14.8199C12.3781 15.0872 12.1614 15.3038 11.8942 15.3038H8.3458C8.07858 15.3038 7.86193 15.0872 7.86193 14.8199V13.8522C7.86193 13.585 8.07858 13.3683 8.3458 13.3683H8.82967V10.7877H8.3458C8.07858 10.7877 7.86193 10.571 7.86193 10.3038V9.33607C7.86193 9.06885 8.07858 8.85219 8.3458 8.85219H10.9264C11.1937 8.85219 11.4103 9.06885 11.4103 9.33607V13.3683H11.8942C12.1614 13.3683 12.3781 13.585 12.3781 13.8522V14.8199Z" fill="#663399"/>
</svg>
