<svg width="24" height="25" viewBox="0 0 24 25" fill="none" xmlns="http://www.w3.org/2000/svg">
<path d="M17.6361 7.50024H17.6477M9 22.5002H15C20 22.5002 22 20.5002 22 15.5002V9.50024C22 4.50024 20 2.50024 15 2.50024H9C4 2.50024 2 4.50024 2 9.50024V15.5002C2 20.5002 4 22.5002 9 22.5002ZM15.5 12.5002C15.5 14.4332 13.933 16.0002 12 16.0002C10.067 16.0002 8.5 14.4332 8.5 12.5002C8.5 10.5672 10.067 9.00024 12 9.00024C13.933 9.00024 15.5 10.5672 15.5 12.5002Z" stroke="#FF5F84" stroke-width="1.5" stroke-linecap="round" stroke-linejoin="round"/>
</svg>
