<svg width="22" height="22" viewBox="0 0 22 22" fill="none" xmlns="http://www.w3.org/2000/svg">
<g clip-path="url(#clip0_361_920)">
<path d="M11.17 20.0826C12.1628 20.0826 12.975 19.2704 12.975 18.2776H9.36504C9.36504 19.2704 10.1773 20.0826 11.17 20.0826ZM16.585 14.6676V10.1551C16.585 7.38446 15.114 5.06504 12.5238 4.45134V3.83764C12.5238 3.08856 11.9191 2.48389 11.17 2.48389C10.421 2.48389 9.81629 3.08856 9.81629 3.83764V4.45134C7.23514 5.06504 5.75504 7.37544 5.75504 10.1551V14.6676L3.95004 16.4726V17.3751H18.39V16.4726L16.585 14.6676ZM14.78 15.5701H7.56004V10.1551C7.56004 7.91694 8.92282 6.09389 11.17 6.09389C13.4173 6.09389 14.78 7.91694 14.78 10.1551V15.5701ZM7.18099 3.90984L5.89042 2.61926C3.72442 4.27084 2.29847 6.81589 2.17212 9.70389H3.97712C4.11249 7.31226 5.33989 5.21846 7.18099 3.90984ZM18.363 9.70389H20.168C20.0326 6.81589 18.6066 4.27084 16.4497 2.61926L15.1681 3.90984C16.9912 5.21846 18.2276 7.31226 18.363 9.70389Z" fill="#323232"/>
</g>
<defs>
<clipPath id="clip0_361_920">
<rect width="21.66" height="21.66" fill="white" transform="translate(0.340088 0.227661)"/>
</clipPath>
</defs>
</svg>
