<svg width="22" height="23" viewBox="0 0 22 23" fill="none" xmlns="http://www.w3.org/2000/svg">
<g clip-path="url(#clip0_361_929)">
<path d="M19.2925 11.8024C19.2925 6.84765 15.4479 3.48132 11.17 3.48132C6.93729 3.48132 3.04752 6.77545 3.04752 11.8565C2.50602 12.1634 2.14502 12.741 2.14502 13.4088V15.2138C2.14502 16.2066 2.95727 17.0188 3.95002 17.0188H4.85252V11.5136C4.85252 8.0209 7.67734 5.19607 11.17 5.19607C14.6627 5.19607 17.4875 8.0209 17.4875 11.5136V17.9213H10.2675V19.7263H17.4875C18.4803 19.7263 19.2925 18.9141 19.2925 17.9213V16.8203C19.825 16.5405 20.195 15.99 20.195 15.3402V13.2644C20.195 12.6327 19.825 12.0821 19.2925 11.8024Z" fill="#323232"/>
<path d="M8.46256 13.4088C8.961 13.4088 9.36506 13.0047 9.36506 12.5063C9.36506 12.0078 8.961 11.6038 8.46256 11.6038C7.96412 11.6038 7.56006 12.0078 7.56006 12.5063C7.56006 13.0047 7.96412 13.4088 8.46256 13.4088Z" fill="#323232"/>
<path d="M13.8776 13.4088C14.376 13.4088 14.7801 13.0047 14.7801 12.5063C14.7801 12.0078 14.376 11.6038 13.8776 11.6038C13.3792 11.6038 12.9751 12.0078 12.9751 12.5063C12.9751 13.0047 13.3792 13.4088 13.8776 13.4088Z" fill="#323232"/>
<path d="M16.5851 10.7284C16.1519 8.15629 13.9137 6.18884 11.2153 6.18884C8.48068 6.18884 5.53853 8.45412 5.77318 12.01C8.00236 11.0984 9.68101 9.11294 10.1593 6.69424C11.3416 9.06782 13.7693 10.7013 16.5851 10.7284Z" fill="#323232"/>
</g>
<defs>
<clipPath id="clip0_361_929">
<rect width="21.66" height="21.66" fill="white" transform="translate(0.340088 0.773804)"/>
</clipPath>
</defs>
</svg>
