<svg width="24" height="25" viewBox="0 0 24 25" fill="none" xmlns="http://www.w3.org/2000/svg">
<path d="M12 1.00024C18.3513 1.00024 23.5 6.14897 23.5 12.5002C23.5 18.8515 18.3513 24.0002 12 24.0002C5.64873 24.0002 0.5 18.8515 0.5 12.5002C0.5 6.14897 5.64873 1.00024 12 1.00024ZM16.8975 7.22485C16.582 7.23043 16.2282 7.31905 15.5781 7.55493C15.2488 7.67445 14.8297 7.8367 14.2852 8.05591L12.2383 8.89771C11.6524 9.14137 10.7752 9.51481 9.60742 10.0178L5.23242 11.9153C4.93683 12.0337 4.67994 12.1617 4.48438 12.3069C4.3218 12.4276 4.13566 12.6089 4.06543 12.8616L4.04297 12.9739C4.01664 13.1839 4.06511 13.3839 4.18066 13.554C4.28661 13.7098 4.4311 13.8144 4.55859 13.887C4.6805 13.9563 4.82407 14.0165 4.97363 14.0706L5.42383 14.218L5.68164 14.3C5.99474 14.4018 6.36521 14.5139 6.71582 14.6018C6.97011 14.6656 7.23654 14.7231 7.46973 14.7502L7.69043 14.7659C8.22272 14.7774 8.75764 14.5583 9.28125 14.1995L9.28223 14.2004C10.3041 13.5106 11.171 12.9273 11.8828 12.4514L11.2588 13.0354L10.7021 13.5588L10.4326 13.8245C10.296 13.9562 10.1406 14.1064 10.0146 14.259C9.89006 14.4101 9.75392 14.6104 9.70508 14.8577C9.60441 15.3679 9.9019 15.7699 10.335 16.0979L10.5283 16.2346L11.7959 17.0862C12.0095 17.2317 12.223 17.3785 12.4531 17.5334L13.207 18.0344L13.5967 18.304C14.0277 18.6112 14.5841 19.0308 15.2861 19.0237L15.4287 19.0168C16.0228 18.962 16.4109 18.4752 16.6172 17.72L16.6943 17.3801C17.0419 15.5219 17.6865 11.7486 17.9648 9.54614L18.0596 8.70825C18.0702 8.59673 18.0698 8.47626 18.0635 8.36841L18.0352 8.10474C18.0165 7.99573 17.9682 7.76185 17.7773 7.55981L17.6865 7.47583C17.5352 7.35303 17.3644 7.29307 17.2383 7.26294C17.1736 7.2475 17.1106 7.23776 17.0527 7.23169L16.8975 7.22485Z" stroke="#0B73CE"/>
</svg>
