<svg width="24" height="25" viewBox="0 0 24 25" fill="none" xmlns="http://www.w3.org/2000/svg">
<path d="M0 24.5002L1.687 18.3372C0.645998 16.5332 0.0989998 14.4882 0.0999998 12.3912C0.103 5.83523 5.43799 0.500244 11.993 0.500244C15.174 0.501244 18.16 1.74024 20.406 3.98824C22.6509 6.23623 23.8869 9.22423 23.8859 12.4022C23.8829 18.9592 18.548 24.2942 11.993 24.2942C10.003 24.2932 8.04198 23.7942 6.30499 22.8462L0 24.5002ZM6.59698 20.6932C8.27298 21.6882 9.87298 22.2842 11.989 22.2852C17.437 22.2852 21.875 17.8512 21.878 12.4002C21.88 6.93823 17.463 2.51024 11.997 2.50824C6.54498 2.50824 2.11 6.94223 2.108 12.3922C2.107 14.6172 2.75899 16.2832 3.85399 18.0262L2.85499 21.6742L6.59698 20.6932ZM17.984 15.2292C17.91 15.1052 17.712 15.0312 17.414 14.8822C17.117 14.7332 15.656 14.0142 15.383 13.9152C15.111 13.8162 14.913 13.7662 14.714 14.0642C14.516 14.3612 13.946 15.0312 13.773 15.2292C13.6 15.4272 13.426 15.4522 13.129 15.3032C12.832 15.1542 11.874 14.8412 10.739 13.8282C9.85598 13.0402 9.25898 12.0672 9.08598 11.7692C8.91298 11.4722 9.06798 11.3112 9.21598 11.1632C9.34998 11.0302 9.51298 10.8162 9.66198 10.6422C9.81298 10.4702 9.86198 10.3462 9.96198 10.1472C10.061 9.94922 10.012 9.77522 9.93698 9.62622C9.86198 9.47822 9.26798 8.01523 9.02098 7.42023C8.77898 6.84123 8.53398 6.91923 8.35198 6.91023L7.78198 6.90023C7.58398 6.90023 7.26198 6.97423 6.98998 7.27223C6.71798 7.57023 5.94999 8.28823 5.94999 9.75122C5.94999 11.2142 7.01498 12.6272 7.16298 12.8252C7.31198 13.0232 9.25798 16.0252 12.239 17.3122C12.948 17.6182 13.502 17.8012 13.933 17.9382C14.645 18.1642 15.293 18.1322 15.805 18.0562C16.376 17.9712 17.563 17.3372 17.811 16.6432C18.059 15.9482 18.059 15.3532 17.984 15.2292Z" fill="#25D366"/>
</svg>
