<svg xmlns="http://www.w3.org/2000/svg" fill="none" viewBox="0 0 22 23"><g fill="#323232" clip-path="url(#a)"><path d="M15.682 15.916a1.01 1.01 0 1 0 0-2.022 1.01 1.01 0 0 0 0 2.022"/><path fill-rule="evenodd" d="M15.683 16.71c-.66 0-1.977.325-2.022.975a2.47 2.47 0 0 0 2.021 1.056c.83 0 1.57-.416 2.022-1.056-.045-.65-1.363-.975-2.022-.975" clip-rule="evenodd"/><path fill-rule="evenodd" d="M16.585 10.925v-4.35L9.816 3.624 3.048 6.575v4.431c0 4.098 2.888 7.933 6.768 8.863a8.3 8.3 0 0 0 1.444-.497 5.39 5.39 0 0 0 4.423 2.302 5.42 5.42 0 0 0 5.415-5.415c0-2.68-1.95-4.9-4.513-5.334m-6.317 5.334c0 .505.072 1.002.207 1.462a6 6 0 0 1-.659.27c-2.86-.902-4.963-3.826-4.963-6.985V7.757l4.963-2.166 4.964 2.166v3.168a5.41 5.41 0 0 0-4.512 5.334m5.415 3.61a3.61 3.61 0 0 1-3.61-3.61 3.61 3.61 0 0 1 3.61-3.61 3.61 3.61 0 0 1 3.61 3.61 3.61 3.61 0 0 1-3.61 3.61" clip-rule="evenodd"/></g><defs><clipPath id="a"><path fill="#fff" d="M.34.916H22v21.66H.34z"/></clipPath></defs></svg>