<svg xmlns="http://www.w3.org/2000/svg" fill="none" viewBox="0 0 25 25"><g clip-path="url(#a)"><path fill="#639" d="M12.5 2.031c-5.75 0-10.417 4.667-10.417 10.417S6.75 22.865 12.5 22.865h5.208v-2.083H12.5c-4.52 0-8.333-3.813-8.333-8.334S7.979 4.115 12.5 4.115c4.52 0 8.333 3.812 8.333 8.333v1.49c0 .823-.74 1.635-1.562 1.635s-1.563-.812-1.563-1.635v-1.49A5.21 5.21 0 0 0 12.5 7.24a5.21 5.21 0 0 0-5.208 5.208 5.21 5.21 0 0 0 5.208 5.209 5.18 5.18 0 0 0 3.688-1.532c.677.927 1.843 1.532 3.083 1.532 2.052 0 3.646-1.667 3.646-3.72v-1.489c0-5.75-4.667-10.417-10.417-10.417m0 13.542a3.12 3.12 0 0 1-3.125-3.125A3.12 3.12 0 0 1 12.5 9.323a3.12 3.12 0 0 1 3.125 3.125 3.12 3.12 0 0 1-3.125 3.125"/></g><defs><clipPath id="a"><path fill="#fff" d="M0 0h25v25H0z"/></clipPath></defs></svg>