<svg xmlns="http://www.w3.org/2000/svg" fill="none" viewBox="0 0 22 23"><g clip-path="url(#a)"><path fill="#D2524B" d="M10.078 15.333a.9.9 0 0 0 1.273 0l3.24-3.24a.9.9 0 0 0 0-1.272l-3.24-3.24a.899.899 0 1 0-1.273 1.272l1.697 1.706H3.95a.905.905 0 0 0-.902.902c0 .497.406.903.902.903h7.825l-1.697 1.697a.907.907 0 0 0 0 1.272m7.41-11.994H4.853a1.804 1.804 0 0 0-1.805 1.805V7.85c0 .497.406.903.902.903a.905.905 0 0 0 .903-.903V6.046c0-.496.406-.902.902-.902h10.83c.496 0 .903.406.903.902v10.83a.905.905 0 0 1-.903.903H5.755a.905.905 0 0 1-.902-.903v-1.805a.905.905 0 0 0-.903-.902.905.905 0 0 0-.902.902v2.708a1.81 1.81 0 0 0 1.805 1.805h12.635a1.81 1.81 0 0 0 1.805-1.805V5.144a1.81 1.81 0 0 0-1.805-1.805"/></g><defs><clipPath id="a"><path fill="#fff" d="M.34.631H22v21.66H.34z"/></clipPath></defs></svg>