<svg xmlns="http://www.w3.org/2000/svg" fill="none" viewBox="0 0 35 36"><g clip-path="url(#a)"><path fill="#4F5251" d="M16.042 26.75h2.916v-2.917h-2.916zM17.5 3.417C9.45 3.417 2.917 9.95 2.917 18S9.45 32.583 17.5 32.583 32.083 26.05 32.083 18 25.55 3.417 17.5 3.417m0 26.25C11.069 29.667 5.833 24.43 5.833 18S11.07 6.333 17.5 6.333 29.167 11.57 29.167 18 23.93 29.667 17.5 29.667m0-20.417a5.83 5.83 0 0 0-5.833 5.833h2.916a2.925 2.925 0 0 1 2.917-2.916 2.925 2.925 0 0 1 2.917 2.916c0 2.917-4.375 2.552-4.375 7.292h2.916c0-3.281 4.375-3.646 4.375-7.292A5.83 5.83 0 0 0 17.5 9.25"/></g><defs><clipPath id="a"><path fill="#fff" d="M0 .5h35v35H0z"/></clipPath></defs></svg>