<svg xmlns="http://www.w3.org/2000/svg" fill="none" viewBox="0 0 17 18"><g clip-path="url(#a)"><path fill="#323232" d="M3.088 4.939H1.734v9.476c0 .745.609 1.354 1.354 1.354h9.476v-1.354H3.088zm10.83-2.708H5.795c-.745 0-1.354.61-1.354 1.354v8.122c0 .745.61 1.354 1.354 1.354h8.122c.745 0 1.354-.609 1.354-1.354V3.585c0-.745-.609-1.354-1.354-1.354m0 9.477H5.795V3.585h8.123zm-6.77-4.739h5.416v1.354H7.149zm0 2.031h2.708v1.354H7.15zm0-4.061h5.416v1.353H7.149z"/></g><defs><clipPath id="a"><path fill="#fff" d="M.38.878h16.245v16.245H.38z"/></clipPath></defs></svg>