<svg xmlns="http://www.w3.org/2000/svg" fill="none" viewBox="0 0 22 22"><g clip-path="url(#a)"><path fill="#323232" d="M11.17 20.083a1.81 1.81 0 0 0 1.805-1.805h-3.61a1.81 1.81 0 0 0 1.805 1.805m5.415-5.415v-4.513c0-2.77-1.471-5.09-4.061-5.704v-.613c0-.75-.605-1.354-1.354-1.354s-1.354.605-1.354 1.354v.613c-2.58.614-4.061 2.924-4.061 5.704v4.513L3.95 16.473v.902h14.44v-.902zm-1.805.902H7.56v-5.415c0-2.238 1.363-4.061 3.61-4.061s3.61 1.823 3.61 4.061zM7.181 3.91l-1.29-1.29a9.4 9.4 0 0 0-3.719 7.084h1.805A7.62 7.62 0 0 1 7.181 3.91m11.182 5.794h1.805a9.47 9.47 0 0 0-3.718-7.085l-1.282 1.29a7.67 7.67 0 0 1 3.195 5.795"/></g><defs><clipPath id="a"><path fill="#fff" d="M.34.228H22v21.66H.34z"/></clipPath></defs></svg>