<svg xmlns="http://www.w3.org/2000/svg" fill="none" viewBox="0 0 22 23"><g fill="#323232" clip-path="url(#a)"><path d="M19.293 11.802c0-4.954-3.845-8.32-8.123-8.32-4.233 0-8.122 3.293-8.122 8.375a1.78 1.78 0 0 0-.903 1.552v1.805a1.81 1.81 0 0 0 1.805 1.805h.903v-5.505a6.313 6.313 0 0 1 6.317-6.318 6.313 6.313 0 0 1 6.318 6.318v6.407h-7.22v1.805h7.22a1.81 1.81 0 0 0 1.805-1.805v-1.1a1.67 1.67 0 0 0 .902-1.48v-2.077c0-.631-.37-1.182-.902-1.462"/><path d="M8.463 13.409a.903.903 0 1 0 0-1.805.903.903 0 0 0 0 1.805m5.415 0a.903.903 0 1 0 0-1.805.903.903 0 0 0 0 1.805"/><path d="M16.585 10.728a5.45 5.45 0 0 0-5.37-4.54c-2.734 0-5.676 2.266-5.442 5.822a7.29 7.29 0 0 0 4.386-5.316 7.25 7.25 0 0 0 6.426 4.034"/></g><defs><clipPath id="a"><path fill="#fff" d="M.34.774H22v21.66H.34z"/></clipPath></defs></svg>