<svg xmlns="http://www.w3.org/2000/svg" fill="none" viewBox="0 0 24 25"><path stroke="#0B73CE" d="M12 1c6.351 0 11.5 5.149 11.5 11.5C23.5 18.852 18.351 24 12 24S.5 18.852.5 12.5C.5 6.15 5.649 1 12 1Zm4.898 6.225c-.316.005-.67.094-1.32.33-.33.12-.748.282-1.293.5l-2.047.843q-.88.365-2.63 1.12l-4.376 1.897a3.4 3.4 0 0 0-.748.392c-.162.12-.348.302-.419.555l-.022.112c-.026.21.022.41.138.58.106.156.25.26.378.333.122.07.265.13.415.184l.45.147.258.082c.313.102.683.214 1.034.302.254.064.52.121.754.148l.22.016c.533.011 1.068-.208 1.591-.566h.001q1.533-1.035 2.6-1.749l-.623.584-.557.524-.27.266a6 6 0 0 0-.417.434 1.4 1.4 0 0 0-.31.599c-.1.51.197.912.63 1.24l.193.137 1.268.851c.213.146.427.293.657.447l.754.501.39.27c.43.307.987.727 1.69.72l.142-.007c.594-.055.982-.542 1.188-1.297l.077-.34c.348-1.858.992-5.631 1.27-7.834l.096-.838c.01-.111.01-.232.004-.34l-.029-.263a1.03 1.03 0 0 0-.258-.545l-.09-.084a1.1 1.1 0 0 0-.449-.213 2 2 0 0 0-.185-.031z"/></svg>