<svg xmlns="http://www.w3.org/2000/svg" fill="none" viewBox="0 0 24 25"><path fill="#25D366" d="m0 24.5 1.687-6.163A11.87 11.87 0 0 1 .1 12.391C.103 5.835 5.438.501 11.993.501a11.82 11.82 0 0 1 8.413 3.487 11.82 11.82 0 0 1 3.48 8.414c-.003 6.557-5.338 11.892-11.893 11.892a11.9 11.9 0 0 1-5.688-1.448zm6.597-3.807c1.676.995 3.276 1.591 5.392 1.592 5.448 0 9.886-4.434 9.889-9.885.002-5.462-4.415-9.89-9.881-9.892-5.452 0-9.887 4.434-9.889 9.884-.001 2.225.651 3.891 1.746 5.634l-.999 3.648zm11.387-5.464c-.074-.124-.272-.198-.57-.347s-1.758-.868-2.031-.967c-.272-.099-.47-.149-.669.15-.198.296-.768.966-.941 1.164s-.347.223-.644.074-1.255-.462-2.39-1.475c-.883-.788-1.48-1.76-1.653-2.059-.173-.297-.018-.458.13-.606.134-.133.297-.347.446-.52.151-.173.2-.297.3-.496.099-.198.05-.372-.025-.52s-.669-1.612-.916-2.207c-.242-.579-.487-.5-.669-.51l-.57-.01c-.198 0-.52.074-.792.372s-1.04 1.016-1.04 2.48c0 1.462 1.065 2.875 1.213 3.073s2.095 3.2 5.076 4.487c.709.306 1.263.49 1.694.626.712.226 1.36.194 1.872.118.571-.085 1.758-.719 2.006-1.413s.248-1.29.173-1.414"/></svg>